<svg xmlns="http://www.w3.org/2000/svg" id="Layer_1" data-name="Layer 1" viewBox="0 0 1454.67 331">
  <defs>
    <linearGradient id="linear-gradient" x1="21.06" x2="240.57" y1="260.4" y2="40.89" gradientUnits="userSpaceOnUse">
      <stop offset="0" stop-color="#7f7f7f" />
      <stop offset=".25" stop-color="#828282" />
      <stop offset=".42" stop-color="#8b8b8b" />
      <stop offset=".57" stop-color="#9a9a9a" />
      <stop offset=".7" stop-color="#b0b0b0" />
      <stop offset=".83" stop-color="#cbcbcb" />
      <stop offset=".94" stop-color="#ededed" />
      <stop offset=".99" stop-color="#fff" />
    </linearGradient>
    <linearGradient id="linear-gradient-2" x1="21.98" x2="241.39" y1="261.3" y2="41.9" gradientUnits="userSpaceOnUse">
      <stop offset="0" stop-color="#7f7f7f" />
      <stop offset=".24" stop-color="#828282" />
      <stop offset=".42" stop-color="#8b8b8b" />
      <stop offset=".57" stop-color="#9b9b9b" />
      <stop offset=".7" stop-color="#b0b0b0" />
      <stop offset=".99" stop-color="#fff" />
      <stop offset="1" stop-color="#fff" />
    </linearGradient>
    <linearGradient id="linear-gradient-3" x1="22.9" x2="242.2" y1="262.21" y2="42.91" gradientUnits="userSpaceOnUse">
      <stop offset="0" stop-color="#7f7f7f" />
      <stop offset=".23" stop-color="#828282" />
      <stop offset=".41" stop-color="#8b8b8b" />
      <stop offset=".56" stop-color="#9b9b9b" />
      <stop offset=".7" stop-color="#b2b2b2" />
      <stop offset=".99" stop-color="#fff" />
      <stop offset="1" stop-color="#fff" />
    </linearGradient>
    <linearGradient id="linear-gradient-4" x1="23.82" x2="243.02" y1="263.12" y2="43.91" gradientUnits="userSpaceOnUse">
      <stop offset="0" stop-color="#7f7f7f" />
      <stop offset=".23" stop-color="#828282" />
      <stop offset=".4" stop-color="#8c8c8c" />
      <stop offset=".56" stop-color="#9c9c9c" />
      <stop offset=".7" stop-color="#b3b3b3" />
      <stop offset=".99" stop-color="#fff" />
      <stop offset="1" stop-color="#fff" />
    </linearGradient>
    <linearGradient id="linear-gradient-5" x1="24.73" x2="243.84" y1="264.03" y2="44.92" gradientUnits="userSpaceOnUse">
      <stop offset="0" stop-color="#7f7f7f" />
      <stop offset=".22" stop-color="#828282" />
      <stop offset=".39" stop-color="#8c8c8c" />
      <stop offset=".55" stop-color="#9d9d9d" />
      <stop offset=".7" stop-color="#b4b4b4" />
      <stop offset=".99" stop-color="#fff" />
      <stop offset="1" stop-color="#fff" />
    </linearGradient>
    <linearGradient id="linear-gradient-6" x1="25.65" x2="244.66" y1="264.94" y2="45.93" gradientUnits="userSpaceOnUse">
      <stop offset="0" stop-color="#7f7f7f" />
      <stop offset=".21" stop-color="#828282" />
      <stop offset=".39" stop-color="#8d8d8d" />
      <stop offset=".55" stop-color="#9e9e9e" />
      <stop offset=".7" stop-color="#b5b5b5" />
      <stop offset=".99" stop-color="#fff" />
      <stop offset="1" stop-color="#fff" />
    </linearGradient>
    <linearGradient id="linear-gradient-7" x1="26.57" x2="245.48" y1="265.84" y2="46.93" gradientUnits="userSpaceOnUse">
      <stop offset="0" stop-color="#7f7f7f" />
      <stop offset=".2" stop-color="#828282" />
      <stop offset=".38" stop-color="#8d8d8d" />
      <stop offset=".55" stop-color="#9f9f9f" />
      <stop offset=".7" stop-color="#b7b7b7" />
      <stop offset=".99" stop-color="#fff" />
      <stop offset="1" stop-color="#fff" />
    </linearGradient>
    <linearGradient id="linear-gradient-8" x1="27.49" x2="246.3" y1="266.75" y2="47.94" gradientUnits="userSpaceOnUse">
      <stop offset="0" stop-color="#7f7f7f" />
      <stop offset=".2" stop-color="#838383" />
      <stop offset=".37" stop-color="#8e8e8e" />
      <stop offset=".55" stop-color="#a0a0a0" />
      <stop offset=".7" stop-color="#b8b8b8" />
      <stop offset=".99" stop-color="#fff" />
      <stop offset="1" stop-color="#fff" />
    </linearGradient>
    <linearGradient id="linear-gradient-9" x1="28.4" x2="247.12" y1="267.66" y2="48.95" gradientUnits="userSpaceOnUse">
      <stop offset="0" stop-color="#7f7f7f" />
      <stop offset=".19" stop-color="#838383" />
      <stop offset=".37" stop-color="#8e8e8e" />
      <stop offset=".55" stop-color="#a1a1a1" />
      <stop offset=".7" stop-color="#b9b9b9" />
      <stop offset=".99" stop-color="#fff" />
      <stop offset="1" stop-color="#fff" />
    </linearGradient>
    <linearGradient id="linear-gradient-10" x1="29.32" x2="247.94" y1="268.57" y2="49.95" gradientUnits="userSpaceOnUse">
      <stop offset="0" stop-color="#7f7f7f" />
      <stop offset=".18" stop-color="#838383" />
      <stop offset=".37" stop-color="#8f8f8f" />
      <stop offset=".55" stop-color="#a3a3a3" />
      <stop offset=".7" stop-color="#bababa" />
      <stop offset=".99" stop-color="#fff" />
      <stop offset="1" stop-color="#fff" />
    </linearGradient>
    <linearGradient id="linear-gradient-11" x1="30.24" x2="248.75" y1="269.48" y2="50.96" gradientUnits="userSpaceOnUse">
      <stop offset="0" stop-color="#7f7f7f" />
      <stop offset=".18" stop-color="#838383" />
      <stop offset=".36" stop-color="#8f8f8f" />
      <stop offset=".54" stop-color="#a4a4a4" />
      <stop offset=".7" stop-color="#bcbcbc" />
      <stop offset=".99" stop-color="#fff" />
      <stop offset="1" stop-color="#fff" />
    </linearGradient>
    <linearGradient id="linear-gradient-12" x1="31.15" x2="249.57" y1="270.39" y2="51.97" gradientUnits="userSpaceOnUse">
      <stop offset="0" stop-color="#7f7f7f" />
      <stop offset=".17" stop-color="#838383" />
      <stop offset=".36" stop-color="#909090" />
      <stop offset=".54" stop-color="#a5a5a5" />
      <stop offset=".7" stop-color="#bdbdbd" />
      <stop offset=".99" stop-color="#fff" />
      <stop offset="1" stop-color="#fff" />
    </linearGradient>
    <linearGradient id="linear-gradient-13" x1="32.07" x2="250.39" y1="271.29" y2="52.97" gradientUnits="userSpaceOnUse">
      <stop offset="0" stop-color="#7f7f7f" />
      <stop offset=".17" stop-color="#848484" />
      <stop offset=".35" stop-color="#919191" />
      <stop offset=".55" stop-color="#a7a7a7" />
      <stop offset=".7" stop-color="#bebebe" />
      <stop offset=".99" stop-color="#fff" />
      <stop offset="1" stop-color="#fff" />
    </linearGradient>
    <linearGradient id="linear-gradient-14" x1="32.99" x2="251.21" y1="272.2" y2="53.98" gradientUnits="userSpaceOnUse">
      <stop offset="0" stop-color="#7f7f7f" />
      <stop offset=".16" stop-color="#848484" />
      <stop offset=".35" stop-color="#929292" />
      <stop offset=".55" stop-color="#a9a9a9" />
      <stop offset=".7" stop-color="#bfbfbf" />
      <stop offset=".99" stop-color="#fff" />
      <stop offset="1" stop-color="#fff" />
    </linearGradient>
    <linearGradient id="linear-gradient-15" x1="33.91" x2="252.03" y1="273.11" y2="54.99" gradientUnits="userSpaceOnUse">
      <stop offset="0" stop-color="#7f7f7f" />
      <stop offset=".16" stop-color="#848484" />
      <stop offset=".35" stop-color="#939393" />
      <stop offset=".55" stop-color="#aaa" />
      <stop offset=".7" stop-color="#c1c1c1" />
      <stop offset=".99" stop-color="#fff" />
      <stop offset="1" stop-color="#fff" />
    </linearGradient>
    <linearGradient id="linear-gradient-16" x1="34.82" x2="252.85" y1="274.02" y2="55.99" gradientUnits="userSpaceOnUse">
      <stop offset="0" stop-color="#7f7f7f" />
      <stop offset=".16" stop-color="#848484" />
      <stop offset=".35" stop-color="#939393" />
      <stop offset=".56" stop-color="#acacac" />
      <stop offset=".7" stop-color="#c2c2c2" />
      <stop offset=".99" stop-color="#fff" />
      <stop offset="1" stop-color="#fff" />
    </linearGradient>
    <linearGradient id="linear-gradient-17" x1="35.74" x2="253.67" y1="274.93" y2="57" gradientUnits="userSpaceOnUse">
      <stop offset="0" stop-color="#7f7f7f" />
      <stop offset=".15" stop-color="#858585" />
      <stop offset=".35" stop-color="#959595" />
      <stop offset=".56" stop-color="#afafaf" />
      <stop offset=".7" stop-color="#c3c3c3" />
      <stop offset=".99" stop-color="#fff" />
      <stop offset="1" stop-color="#fff" />
    </linearGradient>
    <linearGradient id="linear-gradient-18" x1="36.66" x2="254.49" y1="275.83" y2="58.01" gradientUnits="userSpaceOnUse">
      <stop offset="0" stop-color="#7f7f7f" />
      <stop offset=".15" stop-color="#858585" />
      <stop offset=".35" stop-color="#969696" />
      <stop offset=".57" stop-color="#b1b1b1" />
      <stop offset=".7" stop-color="#c4c4c4" />
      <stop offset=".99" stop-color="#fff" />
      <stop offset="1" stop-color="#fff" />
    </linearGradient>
    <linearGradient id="linear-gradient-19" x1="37.58" x2="255.3" y1="276.74" y2="59.01" gradientUnits="userSpaceOnUse">
      <stop offset="0" stop-color="#7f7f7f" />
      <stop offset=".15" stop-color="#858585" />
      <stop offset=".35" stop-color="#979797" />
      <stop offset=".58" stop-color="#b4b4b4" />
      <stop offset=".7" stop-color="#c6c6c6" />
      <stop offset=".99" stop-color="#fff" />
      <stop offset="1" stop-color="#fff" />
    </linearGradient>
    <linearGradient id="linear-gradient-20" x1="38.49" x2="256.12" y1="277.65" y2="60.02" gradientUnits="userSpaceOnUse">
      <stop offset="0" stop-color="#7f7f7f" />
      <stop offset=".14" stop-color="#868686" />
      <stop offset=".35" stop-color="#989898" />
      <stop offset=".59" stop-color="#b7b7b7" />
      <stop offset=".7" stop-color="#c7c7c7" />
      <stop offset=".99" stop-color="#fff" />
      <stop offset="1" stop-color="#fff" />
    </linearGradient>
    <linearGradient id="linear-gradient-21" x1="39.41" x2="256.94" y1="278.56" y2="61.03" gradientUnits="userSpaceOnUse">
      <stop offset="0" stop-color="#7f7f7f" />
      <stop offset=".14" stop-color="#868686" />
      <stop offset=".36" stop-color="#9a9a9a" />
      <stop offset=".61" stop-color="#bababa" />
      <stop offset=".7" stop-color="#c8c8c8" />
      <stop offset=".99" stop-color="#fff" />
      <stop offset="1" stop-color="#fff" />
    </linearGradient>
    <linearGradient id="linear-gradient-22" x1="40.33" x2="257.76" y1="279.47" y2="62.04" gradientUnits="userSpaceOnUse">
      <stop offset="0" stop-color="#7f7f7f" />
      <stop offset=".14" stop-color="#878787" />
      <stop offset=".36" stop-color="#9c9c9c" />
      <stop offset=".63" stop-color="#bebebe" />
      <stop offset=".7" stop-color="#c9c9c9" />
      <stop offset=".99" stop-color="#fff" />
      <stop offset="1" stop-color="#fff" />
    </linearGradient>
    <linearGradient id="linear-gradient-23" x1="41.25" x2="258.58" y1="280.38" y2="63.04" gradientUnits="userSpaceOnUse">
      <stop offset="0" stop-color="#7f7f7f" />
      <stop offset=".14" stop-color="#878787" />
      <stop offset=".37" stop-color="#9e9e9e" />
      <stop offset=".64" stop-color="#c3c3c3" />
      <stop offset=".7" stop-color="#cbcbcb" />
      <stop offset=".99" stop-color="#fff" />
      <stop offset="1" stop-color="#fff" />
    </linearGradient>
    <linearGradient id="linear-gradient-24" x1="42.16" x2="259.4" y1="281.28" y2="64.05" gradientUnits="userSpaceOnUse">
      <stop offset="0" stop-color="#7f7f7f" />
      <stop offset=".14" stop-color="#888" />
      <stop offset=".38" stop-color="#a0a0a0" />
      <stop offset=".67" stop-color="#c8c8c8" />
      <stop offset=".7" stop-color="#ccc" />
      <stop offset=".99" stop-color="#fff" />
      <stop offset="1" stop-color="#fff" />
    </linearGradient>
    <linearGradient id="linear-gradient-25" x1="43.08" x2="260.22" y1="282.19" y2="65.06" gradientUnits="userSpaceOnUse">
      <stop offset="0" stop-color="#7f7f7f" />
      <stop offset=".15" stop-color="#898989" />
      <stop offset=".39" stop-color="#a3a3a3" />
      <stop offset=".7" stop-color="#cdcdcd" />
      <stop offset=".99" stop-color="#fff" />
      <stop offset="1" stop-color="#fff" />
    </linearGradient>
    <linearGradient id="linear-gradient-26" x1="44" x2="261.04" y1="283.1" y2="66.06" gradientUnits="userSpaceOnUse">
      <stop offset="0" stop-color="#7f7f7f" />
      <stop offset=".15" stop-color="#8a8a8a" />
      <stop offset=".41" stop-color="#a6a6a6" />
      <stop offset=".7" stop-color="#cecece" />
      <stop offset=".99" stop-color="#fff" />
      <stop offset="1" stop-color="#fff" />
    </linearGradient>
    <linearGradient id="linear-gradient-27" x1="44.92" x2="261.85" y1="284.01" y2="67.07" gradientUnits="userSpaceOnUse">
      <stop offset="0" stop-color="#7f7f7f" />
      <stop offset=".15" stop-color="#8b8b8b" />
      <stop offset=".43" stop-color="#aaa" />
      <stop offset=".7" stop-color="#d0d0d0" />
      <stop offset=".99" stop-color="#fff" />
      <stop offset="1" stop-color="#fff" />
    </linearGradient>
    <linearGradient id="linear-gradient-28" x1="45.83" x2="262.67" y1="284.92" y2="68.08" gradientUnits="userSpaceOnUse">
      <stop offset="0" stop-color="#7f7f7f" />
      <stop offset=".16" stop-color="#8c8c8c" />
      <stop offset=".46" stop-color="#afafaf" />
      <stop offset=".7" stop-color="#d1d1d1" />
      <stop offset=".99" stop-color="#fff" />
      <stop offset="1" stop-color="#fff" />
    </linearGradient>
    <linearGradient id="linear-gradient-29" x1="46.75" x2="263.49" y1="285.82" y2="69.08" gradientUnits="userSpaceOnUse">
      <stop offset="0" stop-color="#7f7f7f" />
      <stop offset=".17" stop-color="#8e8e8e" />
      <stop offset=".49" stop-color="#b6b6b6" />
      <stop offset=".7" stop-color="#d2d2d2" />
      <stop offset=".99" stop-color="#fff" />
      <stop offset="1" stop-color="#fff" />
    </linearGradient>
    <linearGradient id="linear-gradient-30" x1="47.67" x2="264.31" y1="286.73" y2="70.09" gradientUnits="userSpaceOnUse">
      <stop offset="0" stop-color="#7f7f7f" />
      <stop offset=".18" stop-color="#909090" />
      <stop offset=".54" stop-color="#bebebe" />
      <stop offset=".7" stop-color="#d3d3d3" />
      <stop offset=".99" stop-color="#fff" />
      <stop offset="1" stop-color="#fff" />
    </linearGradient>
    <linearGradient id="linear-gradient-31" x1="48.58" x2="265.13" y1="287.64" y2="71.1" gradientUnits="userSpaceOnUse">
      <stop offset="0" stop-color="#7f7f7f" />
      <stop offset=".2" stop-color="#949494" />
      <stop offset=".61" stop-color="#c8c8c8" />
      <stop offset=".7" stop-color="#d5d5d5" />
      <stop offset=".99" stop-color="#fff" />
      <stop offset="1" stop-color="#fff" />
    </linearGradient>
    <linearGradient id="linear-gradient-32" x1="49.5" x2="265.95" y1="288.55" y2="72.1" gradientUnits="userSpaceOnUse">
      <stop offset="0" stop-color="#7f7f7f" />
      <stop offset=".23" stop-color="#989898" />
      <stop offset=".7" stop-color="#d6d6d6" />
      <stop offset=".99" stop-color="#fff" />
      <stop offset="1" stop-color="#fff" />
    </linearGradient>
    <linearGradient id="linear-gradient-33" x1="50.42" x2="266.77" y1="289.46" y2="73.11" gradientUnits="userSpaceOnUse">
      <stop offset="0" stop-color="#7f7f7f" />
      <stop offset=".28" stop-color="#9f9f9f" />
      <stop offset=".7" stop-color="#d7d7d7" />
      <stop offset=".99" stop-color="#fff" />
      <stop offset="1" stop-color="#fff" />
    </linearGradient>
    <linearGradient id="linear-gradient-34" x1="51.34" x2="267.59" y1="290.37" y2="74.12" gradientUnits="userSpaceOnUse">
      <stop offset="0" stop-color="#7f7f7f" />
      <stop offset=".36" stop-color="#aaa" />
      <stop offset=".7" stop-color="#d8d8d8" />
      <stop offset=".99" stop-color="#fff" />
      <stop offset="1" stop-color="#fff" />
    </linearGradient>
    <linearGradient id="linear-gradient-35" x1="52.25" x2="268.4" y1="291.27" y2="75.12" gradientUnits="userSpaceOnUse">
      <stop offset="0" stop-color="#7f7f7f" />
      <stop offset=".53" stop-color="#c3c3c3" />
      <stop offset=".7" stop-color="#dadada" />
      <stop offset=".99" stop-color="#fff" />
      <stop offset="1" stop-color="#fff" />
    </linearGradient>
    <linearGradient id="linear-gradient-36" x1="53.17" x2="269.22" y1="292.18" y2="76.13" gradientUnits="userSpaceOnUse">
      <stop offset="0" stop-color="#7f7f7f" />
      <stop offset=".7" stop-color="#dbdbdb" />
      <stop offset=".99" stop-color="#fff" />
      <stop offset="1" stop-color="#fff" />
    </linearGradient>
    <linearGradient id="linear-gradient-37" x1="54.09" x2="270.04" y1="293.09" y2="77.14" gradientUnits="userSpaceOnUse">
      <stop offset="0" stop-color="#7f7f7f" />
      <stop offset=".7" stop-color="#dcdcdc" />
      <stop offset=".99" stop-color="#fff" />
      <stop offset="1" stop-color="#fff" />
    </linearGradient>
    <linearGradient id="linear-gradient-38" x1="55.01" x2="270.86" y1="294" y2="78.14" gradientUnits="userSpaceOnUse">
      <stop offset="0" stop-color="#7f7f7f" />
      <stop offset=".7" stop-color="#ddd" />
      <stop offset=".99" stop-color="#fff" />
      <stop offset="1" stop-color="#fff" />
    </linearGradient>
    <linearGradient id="linear-gradient-39" x1="55.92" x2="271.68" y1="294.91" y2="79.15" gradientUnits="userSpaceOnUse">
      <stop offset="0" stop-color="#7f7f7f" />
      <stop offset=".3" stop-color="#aaa" />
      <stop offset=".7" stop-color="#dfdfdf" />
      <stop offset=".99" stop-color="#fff" />
      <stop offset="1" stop-color="#fff" />
    </linearGradient>
    <linearGradient id="linear-gradient-40" x1="56.84" x2="272.5" y1="295.82" y2="80.16" gradientUnits="userSpaceOnUse">
      <stop offset="0" stop-color="#7f7f7f" />
      <stop offset=".42" stop-color="#bbb" />
      <stop offset=".7" stop-color="#e0e0e0" />
      <stop offset=".99" stop-color="#fff" />
      <stop offset="1" stop-color="#fff" />
    </linearGradient>
    <linearGradient id="linear-gradient-41" x1="57.76" x2="273.32" y1="296.72" y2="81.16" gradientUnits="userSpaceOnUse">
      <stop offset="0" stop-color="#7f7f7f" />
      <stop offset=".48" stop-color="#c5c5c5" />
      <stop offset=".7" stop-color="#e1e1e1" />
      <stop offset=".99" stop-color="#fff" />
      <stop offset="1" stop-color="#fff" />
    </linearGradient>
    <linearGradient id="linear-gradient-42" x1="58.68" x2="274.14" y1="297.63" y2="82.17" gradientUnits="userSpaceOnUse">
      <stop offset="0" stop-color="#7f7f7f" />
      <stop offset=".12" stop-color="#929292" />
      <stop offset=".51" stop-color="#cbcbcb" />
      <stop offset=".7" stop-color="#e2e2e2" />
      <stop offset=".99" stop-color="#fff" />
      <stop offset="1" stop-color="#fff" />
    </linearGradient>
    <linearGradient id="linear-gradient-43" x1="59.59" x2="274.95" y1="298.54" y2="83.18" gradientUnits="userSpaceOnUse">
      <stop offset="0" stop-color="#7f7f7f" />
      <stop offset=".21" stop-color="#a1a1a1" />
      <stop offset=".54" stop-color="#d1d1d1" />
      <stop offset=".7" stop-color="#e4e4e4" />
      <stop offset=".99" stop-color="#fff" />
      <stop offset="1" stop-color="#fff" />
    </linearGradient>
    <linearGradient id="linear-gradient-44" x1="60.51" x2="275.77" y1="299.45" y2="84.18" gradientUnits="userSpaceOnUse">
      <stop offset="0" stop-color="#7f7f7f" />
      <stop offset=".26" stop-color="#ababab" />
      <stop offset=".55" stop-color="#d5d5d5" />
      <stop offset=".7" stop-color="#e5e5e5" />
      <stop offset=".99" stop-color="#fff" />
      <stop offset="1" stop-color="#fff" />
    </linearGradient>
    <linearGradient id="linear-gradient-45" x1="61.43" x2="276.59" y1="300.36" y2="85.19" gradientUnits="userSpaceOnUse">
      <stop offset="0" stop-color="#7f7f7f" />
      <stop offset=".31" stop-color="#b3b3b3" />
      <stop offset=".56" stop-color="#d8d8d8" />
      <stop offset=".7" stop-color="#e6e6e6" />
      <stop offset=".99" stop-color="#fff" />
      <stop offset="1" stop-color="#fff" />
    </linearGradient>
    <linearGradient id="linear-gradient-46" x1="62.35" x2="277.41" y1="301.26" y2="86.2" gradientUnits="userSpaceOnUse">
      <stop offset="0" stop-color="#7f7f7f" />
      <stop offset=".03" stop-color="#848484" />
      <stop offset=".34" stop-color="#b9b9b9" />
      <stop offset=".57" stop-color="#dadada" />
      <stop offset=".7" stop-color="#e7e7e7" />
      <stop offset=".99" stop-color="#fff" />
      <stop offset="1" stop-color="#fff" />
    </linearGradient>
    <linearGradient id="linear-gradient-47" x1="63.26" x2="278.23" y1="302.17" y2="87.21" gradientUnits="userSpaceOnUse">
      <stop offset="0" stop-color="#7f7f7f" />
      <stop offset=".09" stop-color="#8f8f8f" />
      <stop offset=".37" stop-color="silver" />
      <stop offset=".58" stop-color="#dedede" />
      <stop offset=".7" stop-color="#e9e9e9" />
      <stop offset=".99" stop-color="#fff" />
      <stop offset="1" stop-color="#fff" />
    </linearGradient>
    <linearGradient id="linear-gradient-48" x1="64.18" x2="279.05" y1="303.08" y2="88.21" gradientUnits="userSpaceOnUse">
      <stop offset="0" stop-color="#7f7f7f" />
      <stop offset=".13" stop-color="#989898" />
      <stop offset=".39" stop-color="#c4c4c4" />
      <stop offset=".58" stop-color="#e0e0e0" />
      <stop offset=".7" stop-color="#eaeaea" />
      <stop offset=".99" stop-color="#fff" />
      <stop offset="1" stop-color="#fff" />
    </linearGradient>
    <linearGradient id="linear-gradient-49" x1="65.1" x2="279.87" y1="303.99" y2="89.22" gradientUnits="userSpaceOnUse">
      <stop offset="0" stop-color="#7f7f7f" />
      <stop offset=".16" stop-color="#9f9f9f" />
      <stop offset=".4" stop-color="#c8c8c8" />
      <stop offset=".59" stop-color="#e2e2e2" />
      <stop offset=".7" stop-color="#ebebeb" />
      <stop offset=".99" stop-color="#fff" />
      <stop offset="1" stop-color="#fff" />
    </linearGradient>
    <linearGradient id="linear-gradient-50" x1="66.01" x2="280.69" y1="304.9" y2="90.23" gradientUnits="userSpaceOnUse">
      <stop offset="0" stop-color="#7f7f7f" />
      <stop offset=".19" stop-color="#a6a6a6" />
      <stop offset=".41" stop-color="#ccc" />
      <stop offset=".59" stop-color="#e3e3e3" />
      <stop offset=".7" stop-color="#ececec" />
      <stop offset=".99" stop-color="#fff" />
      <stop offset="1" stop-color="#fff" />
    </linearGradient>
    <linearGradient id="linear-gradient-51" x1="66.93" x2="281.51" y1="305.81" y2="91.23" gradientUnits="userSpaceOnUse">
      <stop offset="0" stop-color="#7f7f7f" />
      <stop offset=".22" stop-color="#adadad" />
      <stop offset=".43" stop-color="#d0d0d0" />
      <stop offset=".59" stop-color="#e6e6e6" />
      <stop offset=".7" stop-color="#eee" />
      <stop offset=".99" stop-color="#fff" />
      <stop offset="1" stop-color="#fff" />
    </linearGradient>
    <linearGradient id="linear-gradient-52" x1="67.85" x2="282.32" y1="306.71" y2="92.24" gradientUnits="userSpaceOnUse">
      <stop offset="0" stop-color="#7f7f7f" />
      <stop offset=".02" stop-color="#848484" />
      <stop offset=".24" stop-color="#b2b2b2" />
      <stop offset=".43" stop-color="#d3d3d3" />
      <stop offset=".59" stop-color="#e8e8e8" />
      <stop offset=".7" stop-color="#efefef" />
      <stop offset="1" stop-color="#fff" />
    </linearGradient>
    <style>
      .cls-1 {
        fill: #fff;
      }
    </style>
  </defs>
  <path
    d="M589.38 132.2a31.3 31.3 0 0 0-12.06-12.8q-7.76-4.56-20.56-4.56-11.58 0-19 3.45A27.92 27.92 0 0 0 526 128.51a48.47 48.47 0 0 0-6.55 16.49c-.18.88-.36 1.77-.53 2.67a55.16 55.16 0 0 0-5.13-15.47 31.3 31.3 0 0 0-12.06-12.8q-7.77-4.56-20.56-4.56-11.58 0-19.09 3.45a27.83 27.83 0 0 0-11.94 10.22 42.35 42.35 0 0 0-4.92 10.73V117.3h-19.7v123.12h19.7V189q0-17.73 2.09-28.94t5.79-17.6q3.69-6.4 9.11-8.87a30 30 0 0 1 12.55-2.46q10.35 0 15.89 3.33a18.25 18.25 0 0 1 7.87 9.72 47.88 47.88 0 0 1 2.48 15.6q.12 9.22.12 20.56v60.08h19.94V189a184.37 184.37 0 0 1 1.84-29q1.85-11.19 5.66-17.6a21.08 21.08 0 0 1 9.36-8.87 30.36 30.36 0 0 1 12.44-2.46q10.33 0 15.88 3.33a18.27 18.27 0 0 1 7.88 9.72 49.61 49.61 0 0 1 2.58 15.64q.25 9.22.25 20.56v60.08h19.7v-63.51a194.19 194.19 0 0 0-1.48-25.11 58.35 58.35 0 0 0-5.79-19.58ZM720.26 168.27a75.2 75.2 0 0 0-3-21.67 45.65 45.65 0 0 0-9-16.86 41 41 0 0 0-15.26-11q-9.24-3.93-22.29-3.94a57.44 57.44 0 0 0-22.6 4.2 50 50 0 0 0-16.38 10.83 47.51 47.51 0 0 0-10 14.77 40.77 40.77 0 0 0-3.44 16H638a21.19 21.19 0 0 1 2.71-10.83 28.18 28.18 0 0 1 7.14-8.13 32.61 32.61 0 0 1 10.22-5.29 38.79 38.79 0 0 1 11.93-1.81q14.78 0 22.66 7.76t7.87 22l-3.19.23q-6.17.24-13.06.74l-13.54 1a142.14 142.14 0 0 0-21.3 2.59 67.05 67.05 0 0 0-18.71 6.52 36 36 0 0 0-13.17 11.82q-4.94 7.4-4.93 18.47 0 16.74 9.48 27t28.2 10.22q18.21 0 29.79-5.17T698.34 224c.86-1.09 1.64-2.22 2.4-3.36.07 1.61.18 3.1.31 4.47a20.09 20.09 0 0 0 2.59 8.62 12.13 12.13 0 0 0 6.15 5q4.07 1.6 11.2 1.6h7.15v-19.7h-7.88ZM692.68 212a32.1 32.1 0 0 1-12.68 9.83q-8.26 3.81-21.55 3.82-12.56 0-19.33-4.31t-6.77-15.64a16.41 16.41 0 0 1 3.08-10.22 22.65 22.65 0 0 1 8.49-6.65 45.27 45.27 0 0 1 12.44-3.69q7-1.11 14.9-1.6c3.6-.33 7.71-.65 12.31-1s8.9-.61 12.92-.86l4.07-.24v2.33a64.84 64.84 0 0 1-1.73 14.78 36.49 36.49 0 0 1-6.15 13.45ZM824.66 120.26a27.25 27.25 0 0 0-12.31 9.23 37.07 37.07 0 0 0-6.15 14.11l-2-26.3h-53.41v19.21h36.44v84.7h-36.44v19.21h116v-19.21h-59.86v-37.43a240.68 240.68 0 0 1 1-24.25q1-9.22 4.56-14.28t10.71-6.65q7.14-1.59 19.7-1.6h23.88v-19.7h-22.67q-11.82 0-19.45 2.96ZM1045.16 132.2a31.39 31.39 0 0 0-12.07-12.8q-7.75-4.56-20.56-4.56-11.58 0-19 3.45a28 28 0 0 0-11.82 10.22 48.46 48.46 0 0 0-6.48 16.49q-.29 1.32-.54 2.67a55.16 55.16 0 0 0-5.13-15.47 31.3 31.3 0 0 0-12.06-12.8q-7.75-4.56-20.56-4.56-11.58 0-19.09 3.45a27.89 27.89 0 0 0-11.94 10.22 42.35 42.35 0 0 0-4.91 10.73V117.3h-19.7v123.12H901V189q0-17.73 2.09-28.94t5.79-17.6q3.69-6.4 9.11-8.87a30.07 30.07 0 0 1 12.56-2.46q10.34 0 15.88 3.33a18.31 18.31 0 0 1 7.88 9.72 48.17 48.17 0 0 1 2.46 15.64q.12 9.22.12 20.56v60.08h20V189q0-17.73 1.84-28.94t5.67-17.6a21 21 0 0 1 9.35-8.87 30.36 30.36 0 0 1 12.44-2.46q10.33 0 15.88 3.33a18.27 18.27 0 0 1 7.88 9.72 49.61 49.61 0 0 1 2.58 15.64q.26 9.22.25 20.56v60.08h19.7v-63.57a194.19 194.19 0 0 0-1.48-25.11 58.35 58.35 0 0 0-5.84-19.58ZM1126 114.84q-26.83 0-42.23 17.11t-15.39 46.91q0 30 15.39 47t42.23 17q22.41 0 36.81-11.69t19.09-32.88h-19.7q-3.21 13.55-12.31 20.32T1126 225.4q-19 0-28.56-11.7-8.44-10.33-9.44-29.7h95.65l.25-5.17q0-29.79-15.39-46.91T1126 114.84Zm0 17.48q19.45 0 28.93 11.7 6.94 8.56 8.79 23.27h-75.17q1.89-14.52 8.89-23.15 9.64-11.82 28.56-11.82ZM1271.81 98.84q0-19.95-8.5-29.06t-26.47-9.11h-37.92v19.7H1243a38.44 38.44 0 0 1 4.93.24 4.33 4.33 0 0 1 2.7 1.36 5.34 5.34 0 0 1 1.23 3 41.7 41.7 0 0 1 .25 5.3v131h-48v19.21h115.72v-19.27h-48ZM1442.45 220.72v-52.45a75.2 75.2 0 0 0-3-21.67 45.65 45.65 0 0 0-9-16.86 41 41 0 0 0-15.26-11q-9.24-3.93-22.29-3.94a57.48 57.48 0 0 0-22.6 4.2 49.85 49.85 0 0 0-16.37 10.83 47.37 47.37 0 0 0-10 14.77 40.77 40.77 0 0 0-3.44 16h19.69a21.19 21.19 0 0 1 2.71-10.83 28.18 28.18 0 0 1 7.14-8.13 32.61 32.61 0 0 1 10.22-5.29 38.79 38.79 0 0 1 11.94-1.85q14.77 0 22.66 7.76t7.87 22l-3.19.23q-6.16.24-13 .74l-13.55 1a142.14 142.14 0 0 0-21.3 2.59 67.17 67.17 0 0 0-18.71 6.52 36 36 0 0 0-13.17 11.82q-4.93 7.4-4.93 18.47 0 16.74 9.48 27t28.2 10.22q18.21 0 29.79-5.17t18.19-13.68c.86-1.09 1.64-2.22 2.4-3.36.07 1.61.18 3.1.31 4.47a20.09 20.09 0 0 0 2.59 8.62 12.13 12.13 0 0 0 6.15 5q4.07 1.6 11.2 1.6h7.15v-19.7Zm-27.58-8.72a32.1 32.1 0 0 1-12.68 9.85q-8.26 3.81-21.55 3.82-12.56 0-19.33-4.31t-6.77-15.64a16.41 16.41 0 0 1 3.08-10.22 22.65 22.65 0 0 1 8.49-6.65 45.27 45.27 0 0 1 12.44-3.69q7-1.11 14.9-1.6c3.6-.33 7.71-.65 12.31-1s8.9-.61 12.92-.86l4.07-.24v2.33a64.84 64.84 0 0 1-1.73 14.78 36.49 36.49 0 0 1-6.15 13.43Z"
    class="cls-1"
  />
  <rect width="269.56" height="269.56" x="4.34" y="7.56" rx="6.39" style="fill: url(#linear-gradient)" />
  <rect width="269.56" height="269.56" x="5.26" y="8.47" rx="6.39" style="fill: url(#linear-gradient-2)" />
  <rect width="269.56" height="269.56" x="6.18" y="9.38" rx="6.39" style="fill: url(#linear-gradient-3)" />
  <rect width="269.56" height="269.56" x="7.09" y="10.29" rx="6.39" style="fill: url(#linear-gradient-4)" />
  <rect width="269.56" height="269.56" x="8.01" y="11.19" rx="6.39" style="fill: url(#linear-gradient-5)" />
  <rect width="269.56" height="269.56" x="8.93" y="12.1" rx="6.39" style="fill: url(#linear-gradient-6)" />
  <rect width="269.56" height="269.56" x="9.85" y="13.01" rx="6.39" style="fill: url(#linear-gradient-7)" />
  <rect width="269.56" height="269.56" x="10.76" y="13.92" rx="6.39" style="fill: url(#linear-gradient-8)" />
  <rect width="269.56" height="269.56" x="11.68" y="14.83" rx="6.39" style="fill: url(#linear-gradient-9)" />
  <rect width="269.56" height="269.56" x="12.6" y="15.74" rx="6.39" style="fill: url(#linear-gradient-10)" />
  <rect width="269.56" height="269.56" x="13.51" y="16.64" rx="6.39" style="fill: url(#linear-gradient-11)" />
  <rect width="269.56" height="269.56" x="14.43" y="17.55" rx="6.39" style="fill: url(#linear-gradient-12)" />
  <rect width="269.56" height="269.56" x="15.35" y="18.46" rx="6.39" style="fill: url(#linear-gradient-13)" />
  <rect width="269.56" height="269.56" x="16.27" y="19.37" rx="6.39" style="fill: url(#linear-gradient-14)" />
  <rect width="269.56" height="269.56" x="17.18" y="20.28" rx="6.39" style="fill: url(#linear-gradient-15)" />
  <rect width="269.56" height="269.56" x="18.1" y="21.19" rx="6.39" style="fill: url(#linear-gradient-16)" />
  <rect width="269.56" height="269.56" x="19.02" y="22.09" rx="6.39" style="fill: url(#linear-gradient-17)" />
  <rect width="269.56" height="269.56" x="19.94" y="23" rx="6.39" style="fill: url(#linear-gradient-18)" />
  <rect width="269.56" height="269.56" x="20.85" y="23.91" rx="6.4" style="fill: url(#linear-gradient-19)" />
  <rect width="269.56" height="269.56" x="21.77" y="24.82" rx="6.4" style="fill: url(#linear-gradient-20)" />
  <rect width="269.56" height="269.56" x="22.69" y="25.73" rx="6.4" style="fill: url(#linear-gradient-21)" />
  <rect width="269.56" height="269.56" x="23.6" y="26.63" rx="6.4" style="fill: url(#linear-gradient-22)" />
  <rect width="269.56" height="269.56" x="24.52" y="27.54" rx="6.4" style="fill: url(#linear-gradient-23)" />
  <rect width="269.56" height="269.56" x="25.44" y="28.45" rx="6.4" style="fill: url(#linear-gradient-24)" />
  <rect width="269.56" height="269.56" x="26.36" y="29.36" rx="6.4" style="fill: url(#linear-gradient-25)" />
  <rect width="269.56" height="269.56" x="27.27" y="30.27" rx="6.4" style="fill: url(#linear-gradient-26)" />
  <rect width="269.56" height="269.56" x="28.19" y="31.18" rx="6.4" style="fill: url(#linear-gradient-27)" />
  <rect width="269.56" height="269.56" x="29.11" y="32.08" rx="6.4" style="fill: url(#linear-gradient-28)" />
  <rect width="269.56" height="269.56" x="30.03" y="32.99" rx="6.4" style="fill: url(#linear-gradient-29)" />
  <rect width="269.56" height="269.56" x="30.94" y="33.9" rx="6.4" style="fill: url(#linear-gradient-30)" />
  <rect width="269.56" height="269.56" x="31.86" y="34.81" rx="6.4" style="fill: url(#linear-gradient-31)" />
  <rect width="269.56" height="269.56" x="32.78" y="35.72" rx="6.4" style="fill: url(#linear-gradient-32)" />
  <rect width="269.56" height="269.56" x="33.7" y="36.63" rx="6.4" style="fill: url(#linear-gradient-33)" />
  <rect width="269.56" height="269.56" x="34.61" y="37.53" rx="6.4" style="fill: url(#linear-gradient-34)" />
  <rect width="269.56" height="269.56" x="35.53" y="38.44" rx="6.4" style="fill: url(#linear-gradient-35)" />
  <rect width="269.56" height="269.56" x="36.45" y="39.35" rx="6.4" style="fill: url(#linear-gradient-36)" />
  <rect width="269.56" height="269.56" x="37.36" y="40.26" rx="6.4" style="fill: url(#linear-gradient-37)" />
  <rect width="269.56" height="269.56" x="38.28" y="41.17" rx="6.4" style="fill: url(#linear-gradient-38)" />
  <rect width="269.56" height="269.56" x="39.2" y="42.07" rx="6.4" style="fill: url(#linear-gradient-39)" />
  <rect width="269.56" height="269.56" x="40.12" y="42.98" rx="6.4" style="fill: url(#linear-gradient-40)" />
  <rect width="269.56" height="269.56" x="41.03" y="43.89" rx="6.4" style="fill: url(#linear-gradient-41)" />
  <rect width="269.56" height="269.56" x="41.95" y="44.8" rx="6.4" style="fill: url(#linear-gradient-42)" />
  <rect width="269.56" height="269.56" x="42.87" y="45.71" rx="6.4" style="fill: url(#linear-gradient-43)" />
  <rect width="269.56" height="269.56" x="43.79" y="46.62" rx="6.4" style="fill: url(#linear-gradient-44)" />
  <rect width="269.56" height="269.56" x="44.7" y="47.52" rx="6.4" style="fill: url(#linear-gradient-45)" />
  <rect width="269.56" height="269.56" x="45.62" y="48.43" rx="6.4" style="fill: url(#linear-gradient-46)" />
  <rect width="269.56" height="269.56" x="46.54" y="49.34" rx="6.4" style="fill: url(#linear-gradient-47)" />
  <rect width="269.56" height="269.56" x="47.46" y="50.25" rx="6.4" style="fill: url(#linear-gradient-48)" />
  <rect width="269.56" height="269.56" x="48.37" y="51.16" rx="6.4" style="fill: url(#linear-gradient-49)" />
  <rect width="269.56" height="269.56" x="49.29" y="52.07" rx="6.4" style="fill: url(#linear-gradient-50)" />
  <rect width="269.56" height="269.56" x="50.21" y="52.97" rx="6.4" style="fill: url(#linear-gradient-51)" />
  <rect width="269.56" height="269.56" x="51.12" y="53.88" rx="6.4" style="fill: url(#linear-gradient-52)" />
</svg>
