<svg xmlns="http://www.w3.org/2000/svg" xml:space="preserve" id="Layer_1" x="0" y="0" style="enable-background: new 0 0 1625.2 331" version="1.1" viewBox="0 0 1625.2 331">
  <style>
    .st0 {
      fill: #1a1a1a;
    }
  </style>
  <path
    class="st0"
    d="M655.2 134.8c-2.9-5.5-6.9-9.8-12.1-12.8-5.2-3-12-4.6-20.6-4.6-7.7 0-14 1.2-19 3.4-4.9 2.3-8.9 5.7-11.8 10.2-3 4.5-5.1 10-6.5 16.5-.2.9-.4 1.8-.5 2.7-1.1-5.8-2.8-11-5.1-15.5-2.9-5.5-6.9-9.8-12.1-12.8-5.2-3-12-4.6-20.6-4.6-7.7 0-14.1 1.2-19.1 3.4-5 2.3-9 5.7-11.9 10.2-2 3.1-3.7 6.7-4.9 10.7v-21.9h-19.7v123.1H511v-51.5c0-11.8.7-21.5 2.1-28.9 1.4-7.5 3.3-13.3 5.8-17.6 2.5-4.3 5.5-7.2 9.1-8.9 3.6-1.6 7.8-2.5 12.6-2.5 6.9 0 12.2 1.1 15.9 3.3s6.3 5.5 7.9 9.7c1.6 4.3 2.4 9.5 2.5 15.6.1 6.2.1 13 .1 20.6v60.1h19.9v-51.5c0-11.8.6-21.5 1.8-28.9 1.2-7.5 3.1-13.3 5.7-17.6 2.5-4.3 5.7-7.2 9.4-8.9 3.7-1.6 7.8-2.5 12.4-2.5 6.9 0 12.2 1.1 15.9 3.3s6.3 5.5 7.9 9.7c1.6 4.3 2.4 9.5 2.6 15.6.2 6.2.2 13 .2 20.6v60.1h19.7v-63.5c0-9.2-.5-17.6-1.5-25.1-1-7.1-3-13.7-5.8-19.2zM786 170.9c0-7.9-1-15.1-3-21.7s-5-12.2-9-16.9c-4-4.7-9.1-8.3-15.3-11-6.2-2.6-13.6-3.9-22.3-3.9-8.5 0-16.1 1.4-22.7 4.2-6.6 2.8-12 6.4-16.4 10.8-4.4 4.4-7.7 9.4-10 14.8s-3.4 10.8-3.4 16h19.7c0-4.1.9-7.7 2.7-10.8 1.8-3.1 4.2-5.8 7.1-8.1 3-2.3 6.4-4.1 10.2-5.3 3.9-1.2 7.8-1.8 11.9-1.8 9.8 0 17.4 2.6 22.7 7.8 5.2 5.1 7.8 12.5 7.9 22.1-1.1.1-2.1.2-3.2.2-4.1.2-8.5.4-13.1.7-4.6.3-9.1.7-13.5 1-7.2.3-14.3 1.2-21.3 2.6-7 1.4-13.2 3.6-18.7 6.5-5.5 3-9.9 6.9-13.2 11.8-3.3 4.9-4.9 11.1-4.9 18.5 0 11.2 3.2 20.2 9.5 27 6.3 6.8 15.7 10.2 28.2 10.2 12.1 0 22.1-1.7 29.8-5.2 7.7-3.4 13.8-8 18.2-13.7.9-1.1 1.6-2.2 2.4-3.4.1 1.6.2 3.1.3 4.5.3 3.4 1.2 6.3 2.6 8.6 1.4 2.3 3.4 4 6.2 5 2.7 1.1 6.4 1.6 11.2 1.6h7.1v-19.7H786v-52.4zm-27.5 43.7c-3 4-7.2 7.3-12.7 9.8-5.5 2.5-12.7 3.8-21.5 3.8-8.4 0-14.8-1.4-19.3-4.3s-6.8-8.1-6.8-15.6c0-4.1 1-7.5 3.1-10.2 2.1-2.7 4.9-4.9 8.5-6.6 3.6-1.7 7.8-3 12.4-3.7 4.7-.7 9.6-1.3 14.9-1.6 3.6-.3 7.7-.7 12.3-1 4.6-.3 8.9-.6 12.9-.9 1.3-.1 2.6-.2 4.1-.2v2.3c0 4.9-.6 9.8-1.7 14.8-1.2 4.9-3.3 9.4-6.2 13.4zM890.4 122.9c-5.1 2-9.2 5-12.3 9.2-2.8 3.8-4.9 8.5-6.1 14.1l-2-26.3h-53.4v19.2H853v84.7h-36.4V243h116v-19.2h-59.8v-37.4c0-10 .3-18.1 1-24.3.7-6.2 2.2-10.9 4.6-14.3 2.4-3.4 5.9-5.6 10.7-6.6 4.8-1.1 11.3-1.6 19.7-1.6h23.9v-19.7H910c-8 0-14.5 1-19.6 3zM1110.9 134.8c-2.9-5.5-6.9-9.8-12.1-12.8-5.2-3-12-4.6-20.6-4.6-7.7 0-14 1.2-19 3.4-4.9 2.3-8.9 5.7-11.8 10.2-3 4.5-5.1 10-6.5 16.5-.2.9-.4 1.8-.5 2.7-1.1-5.8-2.8-11-5.1-15.5-2.9-5.5-6.9-9.8-12.1-12.8-5.2-3-12-4.6-20.6-4.6-7.7 0-14.1 1.2-19.1 3.4-5 2.3-9 5.7-11.9 10.2-2 3.1-3.7 6.7-4.9 10.7v-21.9H947v123.1h19.7v-51.5c0-11.8.7-21.5 2.1-28.9 1.4-7.5 3.3-13.3 5.8-17.6 2.5-4.3 5.5-7.2 9.1-8.9 3.6-1.6 7.8-2.5 12.6-2.5 6.9 0 12.2 1.1 15.9 3.3s6.3 5.5 7.9 9.7c1.6 4.3 2.4 9.5 2.5 15.6.1 6.2.1 13 .1 20.6v60.1h19.9v-51.5c0-11.8.6-21.5 1.8-28.9 1.2-7.5 3.1-13.3 5.7-17.6 2.5-4.3 5.7-7.2 9.4-8.9 3.7-1.6 7.8-2.5 12.4-2.5 6.9 0 12.2 1.1 15.9 3.3s6.3 5.5 7.9 9.7c1.6 4.3 2.4 9.5 2.6 15.6.2 6.2.2 13 .2 20.6v60.1h19.7v-63.5c0-9.2-.5-17.6-1.5-25.1-1-7.1-2.9-13.7-5.8-19.2zM1191.8 117.5c-17.9 0-32 5.7-42.2 17.1-10.3 11.4-15.4 27-15.4 46.9 0 20 5.1 35.7 15.4 47 10.3 11.3 24.3 17 42.2 17 14.9 0 27.2-3.9 36.8-11.7 9.6-7.8 16-18.8 19.1-32.9H1228c-2.1 9-6.2 15.8-12.3 20.3-6.1 4.5-14 6.8-23.9 6.8-12.6 0-22.2-3.9-28.6-11.7-5.7-6.9-8.8-16.8-9.5-29.7h95.7l.2-5.2c0-19.9-5.1-35.5-15.4-46.9-10.2-11.3-24.3-17-42.4-17zm0 17.5c13 0 22.6 3.9 28.9 11.7 4.6 5.7 7.6 13.5 8.8 23.3h-75.2c1.3-9.7 4.2-17.4 8.9-23.1 6.5-8 16-11.9 28.6-11.9zM1337.6 101.5c0-13.3-2.8-23-8.5-29.1-5.7-6.1-14.5-9.1-26.5-9.1h-37.9V83h44.1c2.1 0 3.8.1 4.9.2 1.1.2 2 .6 2.7 1.4.7.7 1.1 1.7 1.2 3 .2 1.2.2 3 .2 5.3v131h-48v19.2h115.7v-19.2h-48V101.5zM1508.2 223.4V171c0-7.9-1-15.1-3-21.7s-5-12.2-9-16.9c-4-4.7-9.1-8.3-15.3-11-6.2-2.6-13.6-3.9-22.3-3.9-8.5 0-16.1 1.4-22.7 4.2-6.6 2.8-12 6.4-16.4 10.8-4.4 4.4-7.7 9.4-10 14.8s-3.4 10.8-3.4 16h19.7c0-4.1.9-7.7 2.7-10.8 1.8-3.1 4.2-5.8 7.1-8.1 3-2.3 6.4-4.1 10.2-5.3 3.9-1.2 7.8-1.8 11.9-1.8 9.8 0 17.4 2.6 22.7 7.8 5.2 5.1 7.8 12.5 7.9 22.1-1.1.1-2.1.2-3.2.2-4.1.2-8.5.4-13.1.7-4.6.3-9.1.7-13.5 1-7.2.3-14.3 1.2-21.3 2.6-7 1.4-13.2 3.6-18.7 6.5-5.5 3-9.9 6.9-13.2 11.8-3.3 4.9-4.9 11.1-4.9 18.5 0 11.2 3.2 20.2 9.5 27 6.3 6.8 15.7 10.2 28.2 10.2 12.1 0 22.1-1.7 29.8-5.2 7.7-3.4 13.8-8 18.2-13.7.9-1.1 1.6-2.2 2.4-3.4.1 1.6.2 3.1.3 4.5.3 3.4 1.2 6.3 2.6 8.6 1.4 2.3 3.4 4 6.2 5 2.7 1.1 6.4 1.6 11.2 1.6h7.1v-19.7h-7.7zm-27.6-8.8c-3 4-7.2 7.3-12.7 9.8-5.5 2.5-12.7 3.8-21.5 3.8-8.4 0-14.8-1.4-19.3-4.3s-6.8-8.1-6.8-15.6c0-4.1 1-7.5 3.1-10.2 2.1-2.7 4.9-4.9 8.5-6.6 3.6-1.7 7.8-3 12.4-3.7 4.7-.7 9.6-1.3 14.9-1.6 3.6-.3 7.7-.7 12.3-1 4.6-.3 8.9-.6 12.9-.9 1.3-.1 2.6-.2 4.1-.2v2.3c0 4.9-.6 9.8-1.7 14.8-1.1 4.9-3.2 9.4-6.2 13.4z"
  />
  <linearGradient id="SVGID_1_" x1="86.845" x2="306.348" y1="263.038" y2="43.535" gradientUnits="userSpaceOnUse">
    <stop offset="0" style="stop-color: #053854" />
    <stop offset=".359" style="stop-color: #034369" />
    <stop offset=".994" style="stop-color: #005b97" />
  </linearGradient>
  <path d="M333.3 279.8H76.5c-3.5 0-6.4-2.9-6.4-6.4V16.6c0-3.5 2.9-6.4 6.4-6.4h256.8c3.5 0 6.4 2.9 6.4 6.4v256.8c0 3.5-2.9 6.4-6.4 6.4z" style="fill: url(#SVGID_1_)" />
  <linearGradient id="SVGID_2_" x1="87.762" x2="307.166" y1="263.947" y2="44.542" gradientUnits="userSpaceOnUse">
    <stop offset="0" style="stop-color: #053854" />
    <stop offset=".367" style="stop-color: #04446a" />
    <stop offset=".701" style="stop-color: #025182" />
    <stop offset=".994" style="stop-color: #015c98" />
    <stop offset="1" style="stop-color: #015c98" />
  </linearGradient>
  <path d="M334.2 280.7H77.4c-3.5 0-6.4-2.9-6.4-6.4V17.5c0-3.5 2.9-6.4 6.4-6.4h256.8c3.5 0 6.4 2.9 6.4 6.4v256.8c0 3.5-2.9 6.4-6.4 6.4z" style="fill: url(#SVGID_2_)" />
  <linearGradient id="SVGID_3_" x1="88.68" x2="307.985" y1="264.855" y2="45.549" gradientUnits="userSpaceOnUse">
    <stop offset="0" style="stop-color: #053854" />
    <stop offset=".379" style="stop-color: #03456c" />
    <stop offset=".701" style="stop-color: #025183" />
    <stop offset=".994" style="stop-color: #015e99" />
    <stop offset="1" style="stop-color: #015e9a" />
  </linearGradient>
  <path d="M335.1 281.6H78.3c-3.5 0-6.4-2.9-6.4-6.4V18.4c0-3.5 2.9-6.4 6.4-6.4h256.8c3.5 0 6.4 2.9 6.4 6.4v256.8c0 3.5-2.8 6.4-6.4 6.4z" style="fill: url(#SVGID_3_)" />
  <linearGradient id="SVGID_4_" x1="89.597" x2="308.804" y1="265.763" y2="46.556" gradientUnits="userSpaceOnUse">
    <stop offset="0" style="stop-color: #053854" />
    <stop offset=".392" style="stop-color: #03466d" />
    <stop offset=".701" style="stop-color: #025284" />
    <stop offset=".994" style="stop-color: #025f9b" />
    <stop offset="1" style="stop-color: #025f9b" />
  </linearGradient>
  <path d="M336 282.5H79.3c-3.5 0-6.4-2.9-6.4-6.4V19.3c0-3.5 2.9-6.4 6.4-6.4H336c3.5 0 6.4 2.9 6.4 6.4v256.8c0 3.5-2.8 6.4-6.4 6.4z" style="fill: url(#SVGID_4_)" />
  <linearGradient id="SVGID_5_" x1="90.514" x2="309.623" y1="266.671" y2="47.563" gradientUnits="userSpaceOnUse">
    <stop offset="0" style="stop-color: #053854" />
    <stop offset=".408" style="stop-color: #03466f" />
    <stop offset=".701" style="stop-color: #025285" />
    <stop offset=".994" style="stop-color: #02609c" />
    <stop offset="1" style="stop-color: #02609c" />
  </linearGradient>
  <path d="M337 283.4H80.2c-3.5 0-6.4-2.9-6.4-6.4V20.2c0-3.5 2.9-6.4 6.4-6.4H337c3.5 0 6.4 2.9 6.4 6.4V277c-.1 3.5-2.9 6.4-6.4 6.4z" style="fill: url(#SVGID_5_)" />
  <linearGradient id="SVGID_6_" x1="91.432" x2="310.441" y1="267.579" y2="48.569" gradientUnits="userSpaceOnUse">
    <stop offset="0" style="stop-color: #053854" />
    <stop offset=".427" style="stop-color: #034871" />
    <stop offset=".701" style="stop-color: #025386" />
    <stop offset=".994" style="stop-color: #03619d" />
    <stop offset="1" style="stop-color: #03619d" />
  </linearGradient>
  <path d="M337.9 284.3H81.1c-3.5 0-6.4-2.9-6.4-6.4V21.1c0-3.5 2.9-6.4 6.4-6.4h256.8c3.5 0 6.4 2.9 6.4 6.4v256.8c0 3.5-2.9 6.4-6.4 6.4z" style="fill: url(#SVGID_6_)" />
  <linearGradient id="SVGID_7_" x1="92.349" x2="311.26" y1="268.488" y2="49.576" gradientUnits="userSpaceOnUse">
    <stop offset="0" style="stop-color: #053854" />
    <stop offset=".45" style="stop-color: #034973" />
    <stop offset=".701" style="stop-color: #025387" />
    <stop offset=".994" style="stop-color: #03639e" />
    <stop offset="1" style="stop-color: #04639f" />
  </linearGradient>
  <path d="M338.8 285.2H82c-3.5 0-6.4-2.9-6.4-6.4V22c0-3.5 2.9-6.4 6.4-6.4h256.8c3.5 0 6.4 2.9 6.4 6.4v256.8c0 3.5-2.9 6.4-6.4 6.4z" style="fill: url(#SVGID_7_)" />
  <linearGradient id="SVGID_8_" x1="93.266" x2="312.079" y1="269.396" y2="50.583" gradientUnits="userSpaceOnUse">
    <stop offset="0" style="stop-color: #053854" />
    <stop offset=".477" style="stop-color: #034a76" />
    <stop offset=".701" style="stop-color: #025488" />
    <stop offset=".994" style="stop-color: #0464a0" />
    <stop offset="1" style="stop-color: #0464a0" />
  </linearGradient>
  <path d="M339.7 286.1H82.9c-3.5 0-6.4-2.9-6.4-6.4V23c0-3.5 2.9-6.4 6.4-6.4h256.8c3.5 0 6.4 2.9 6.4 6.4v256.8c0 3.5-2.9 6.3-6.4 6.3z" style="fill: url(#SVGID_8_)" />
  <linearGradient id="SVGID_9_" x1="94.184" x2="312.898" y1="270.304" y2="51.59" gradientUnits="userSpaceOnUse">
    <stop offset="0" style="stop-color: #053854" />
    <stop offset=".511" style="stop-color: #034d7a" />
    <stop offset=".701" style="stop-color: #025589" />
    <stop offset=".994" style="stop-color: #0565a1" />
    <stop offset="1" style="stop-color: #0565a1" />
  </linearGradient>
  <path d="M340.6 287H83.9c-3.5 0-6.4-2.9-6.4-6.4V23.9c0-3.5 2.9-6.4 6.4-6.4h256.8c3.5 0 6.4 2.9 6.4 6.4v256.8c-.1 3.5-2.9 6.3-6.5 6.3z" style="fill: url(#SVGID_9_)" />
  <linearGradient id="SVGID_10_" x1="95.101" x2="313.716" y1="271.212" y2="52.597" gradientUnits="userSpaceOnUse">
    <stop offset="0" style="stop-color: #053854" />
    <stop offset=".553" style="stop-color: #034e7e" />
    <stop offset=".701" style="stop-color: #02558a" />
    <stop offset=".994" style="stop-color: #0566a2" />
    <stop offset="1" style="stop-color: #0566a2" />
  </linearGradient>
  <path d="M341.5 287.9H84.8c-3.5 0-6.4-2.9-6.4-6.4V24.8c0-3.5 2.9-6.4 6.4-6.4h256.8c3.5 0 6.4 2.9 6.4 6.4v256.8c-.1 3.5-2.9 6.3-6.5 6.3z" style="fill: url(#SVGID_10_)" />
  <linearGradient id="SVGID_11_" x1="96.018" x2="314.535" y1="272.12" y2="53.603" gradientUnits="userSpaceOnUse">
    <stop offset="0" style="stop-color: #053854" />
    <stop offset=".605" style="stop-color: #025283" />
    <stop offset=".701" style="stop-color: #02568b" />
    <stop offset=".994" style="stop-color: #0668a3" />
    <stop offset="1" style="stop-color: #0668a4" />
  </linearGradient>
  <path d="M342.5 288.8H85.7c-3.5 0-6.4-2.9-6.4-6.4V25.7c0-3.5 2.9-6.4 6.4-6.4h256.8c3.5 0 6.4 2.9 6.4 6.4v256.8c0 3.5-2.9 6.3-6.4 6.3z" style="fill: url(#SVGID_11_)" />
  <linearGradient id="SVGID_12_" x1="96.936" x2="315.354" y1="273.029" y2="54.61" gradientUnits="userSpaceOnUse">
    <stop offset="0" style="stop-color: #053854" />
    <stop offset=".674" style="stop-color: #02558a" />
    <stop offset=".701" style="stop-color: #02568c" />
    <stop offset=".994" style="stop-color: #0669a5" />
    <stop offset="1" style="stop-color: #0669a5" />
  </linearGradient>
  <path d="M343.4 289.8H86.6c-3.5 0-6.4-2.9-6.4-6.4V26.6c0-3.5 2.9-6.4 6.4-6.4h256.8c3.5 0 6.4 2.9 6.4 6.4v256.8c0 3.5-2.9 6.4-6.4 6.4z" style="fill: url(#SVGID_12_)" />
  <linearGradient id="SVGID_13_" x1="97.853" x2="316.173" y1="273.937" y2="55.617" gradientUnits="userSpaceOnUse">
    <stop offset="0" style="stop-color: #053854" />
    <stop offset=".701" style="stop-color: #02578d" />
    <stop offset=".994" style="stop-color: #076aa6" />
    <stop offset="1" style="stop-color: #076aa6" />
  </linearGradient>
  <path d="M344.3 290.7H87.5c-3.5 0-6.4-2.9-6.4-6.4V27.5c0-3.5 2.9-6.4 6.4-6.4h256.8c3.5 0 6.4 2.9 6.4 6.4v256.8c0 3.5-2.9 6.4-6.4 6.4z" style="fill: url(#SVGID_13_)" />
  <linearGradient id="SVGID_14_" x1="98.77" x2="316.991" y1="274.845" y2="56.624" gradientUnits="userSpaceOnUse">
    <stop offset="0" style="stop-color: #053854" />
    <stop offset=".701" style="stop-color: #01578f" />
    <stop offset=".994" style="stop-color: #076ba7" />
    <stop offset="1" style="stop-color: #086ca7" />
  </linearGradient>
  <path d="M345.2 291.6H88.4c-3.5 0-6.4-2.9-6.4-6.4V28.4c0-3.5 2.9-6.4 6.4-6.4h256.8c3.5 0 6.4 2.9 6.4 6.4v256.8c0 3.5-2.9 6.4-6.4 6.4z" style="fill: url(#SVGID_14_)" />
  <linearGradient id="SVGID_15_" x1="99.688" x2="317.81" y1="275.753" y2="57.631" gradientUnits="userSpaceOnUse">
    <stop offset="0" style="stop-color: #053854" />
    <stop offset=".701" style="stop-color: #015890" />
    <stop offset=".994" style="stop-color: #086da8" />
    <stop offset="1" style="stop-color: #086da9" />
  </linearGradient>
  <path d="M346.1 292.5H89.4c-3.5 0-6.4-2.9-6.4-6.4V29.3c0-3.5 2.9-6.4 6.4-6.4h256.8c3.5 0 6.4 2.9 6.4 6.4v256.8c-.1 3.5-2.9 6.4-6.5 6.4z" style="fill: url(#SVGID_15_)" />
  <linearGradient id="SVGID_16_" x1="100.605" x2="318.629" y1="276.661" y2="58.638" gradientUnits="userSpaceOnUse">
    <stop offset="0" style="stop-color: #053854" />
    <stop offset=".701" style="stop-color: #015991" />
    <stop offset=".994" style="stop-color: #096eaa" />
    <stop offset="1" style="stop-color: #096eaa" />
  </linearGradient>
  <path d="M347 293.4H90.3c-3.5 0-6.4-2.9-6.4-6.4V30.2c0-3.5 2.9-6.4 6.4-6.4H347c3.5 0 6.4 2.9 6.4 6.4V287c0 3.5-2.8 6.4-6.4 6.4z" style="fill: url(#SVGID_16_)" />
  <linearGradient id="SVGID_17_" x1="101.523" x2="319.448" y1="277.57" y2="59.644" gradientUnits="userSpaceOnUse">
    <stop offset="0" style="stop-color: #053854" />
    <stop offset=".701" style="stop-color: #015992" />
    <stop offset=".994" style="stop-color: #096fab" />
    <stop offset="1" style="stop-color: #096fab" />
  </linearGradient>
  <path d="M348 294.3H91.2c-3.5 0-6.4-2.9-6.4-6.4V31.1c0-3.5 2.9-6.4 6.4-6.4H348c3.5 0 6.4 2.9 6.4 6.4v256.8c0 3.5-2.9 6.4-6.4 6.4z" style="fill: url(#SVGID_17_)" />
  <linearGradient id="SVGID_18_" x1="102.44" x2="320.267" y1="278.478" y2="60.651" gradientUnits="userSpaceOnUse">
    <stop offset="0" style="stop-color: #053854" />
    <stop offset=".701" style="stop-color: #015a93" />
    <stop offset=".994" style="stop-color: #0a70ac" />
    <stop offset="1" style="stop-color: #0a71ac" />
  </linearGradient>
  <path d="M348.9 295.2H92.1c-3.5 0-6.4-2.9-6.4-6.4V32c0-3.5 2.9-6.4 6.4-6.4h256.8c3.5 0 6.4 2.9 6.4 6.4v256.8c0 3.5-2.9 6.4-6.4 6.4z" style="fill: url(#SVGID_18_)" />
  <linearGradient id="SVGID_19_" x1="103.357" x2="321.085" y1="279.386" y2="61.658" gradientUnits="userSpaceOnUse">
    <stop offset="0" style="stop-color: #053854" />
    <stop offset=".701" style="stop-color: #015a94" />
    <stop offset=".994" style="stop-color: #0a72ad" />
    <stop offset="1" style="stop-color: #0b72ae" />
  </linearGradient>
  <path d="M349.8 296.1H93c-3.5 0-6.4-2.9-6.4-6.4V32.9c0-3.5 2.9-6.4 6.4-6.4h256.8c3.5 0 6.4 2.9 6.4 6.4v256.8c0 3.5-2.9 6.4-6.4 6.4z" style="fill: url(#SVGID_19_)" />
  <linearGradient id="SVGID_20_" x1="104.275" x2="321.904" y1="280.294" y2="62.665" gradientUnits="userSpaceOnUse">
    <stop offset="0" style="stop-color: #053854" />
    <stop offset=".701" style="stop-color: #015b95" />
    <stop offset=".994" style="stop-color: #0b73ae" />
    <stop offset="1" style="stop-color: #0b73af" />
  </linearGradient>
  <path d="M350.7 297H93.9c-3.5 0-6.4-2.9-6.4-6.4V33.9c0-3.5 2.9-6.4 6.4-6.4h256.8c3.5 0 6.4 2.9 6.4 6.4v256.8c0 3.5-2.9 6.3-6.4 6.3z" style="fill: url(#SVGID_20_)" />
  <linearGradient id="SVGID_21_" x1="105.192" x2="322.723" y1="281.202" y2="63.672" gradientUnits="userSpaceOnUse">
    <stop offset="0" style="stop-color: #053854" />
    <stop offset=".701" style="stop-color: #015b96" />
    <stop offset=".994" style="stop-color: #0b74b0" />
    <stop offset="1" style="stop-color: #0c74b0" />
  </linearGradient>
  <path d="M351.6 297.9H94.9c-3.5 0-6.4-2.9-6.4-6.4V34.8c0-3.5 2.9-6.4 6.4-6.4h256.8c3.5 0 6.4 2.9 6.4 6.4v256.8c-.1 3.5-2.9 6.3-6.5 6.3z" style="fill: url(#SVGID_21_)" />
  <linearGradient id="SVGID_22_" x1="106.109" x2="323.542" y1="282.111" y2="64.678" gradientUnits="userSpaceOnUse">
    <stop offset="0" style="stop-color: #053854" />
    <stop offset=".701" style="stop-color: #015c97" />
    <stop offset=".994" style="stop-color: #0c75b1" />
    <stop offset="1" style="stop-color: #0c76b1" />
  </linearGradient>
  <path d="M352.5 298.8H95.8c-3.5 0-6.4-2.9-6.4-6.4V35.7c0-3.5 2.9-6.4 6.4-6.4h256.8c3.5 0 6.4 2.9 6.4 6.4v256.8c-.1 3.5-2.9 6.3-6.5 6.3z" style="fill: url(#SVGID_22_)" />
  <linearGradient id="SVGID_23_" x1="107.027" x2="324.36" y1="283.019" y2="65.685" gradientUnits="userSpaceOnUse">
    <stop offset="0" style="stop-color: #053854" />
    <stop offset=".701" style="stop-color: #015d98" />
    <stop offset=".994" style="stop-color: #0d77b2" />
    <stop offset="1" style="stop-color: #0d77b3" />
  </linearGradient>
  <path d="M353.5 299.7H96.7c-3.5 0-6.4-2.9-6.4-6.4V36.6c0-3.5 2.9-6.4 6.4-6.4h256.8c3.5 0 6.4 2.9 6.4 6.4v256.8c0 3.5-2.9 6.3-6.4 6.3z" style="fill: url(#SVGID_23_)" />
  <linearGradient id="SVGID_24_" x1="107.944" x2="325.179" y1="283.927" y2="66.692" gradientUnits="userSpaceOnUse">
    <stop offset="0" style="stop-color: #053854" />
    <stop offset=".701" style="stop-color: #015d99" />
    <stop offset=".994" style="stop-color: #0d78b3" />
    <stop offset="1" style="stop-color: #0e78b4" />
  </linearGradient>
  <path d="M354.4 300.7H97.6c-3.5 0-6.4-2.9-6.4-6.4V37.5c0-3.5 2.9-6.4 6.4-6.4h256.8c3.5 0 6.4 2.9 6.4 6.4v256.8c0 3.5-2.9 6.4-6.4 6.4z" style="fill: url(#SVGID_24_)" />
  <linearGradient id="SVGID_25_" x1="108.862" x2="325.998" y1="284.835" y2="67.699" gradientUnits="userSpaceOnUse">
    <stop offset="0" style="stop-color: #053854" />
    <stop offset=".04" style="stop-color: #053a58" />
    <stop offset=".701" style="stop-color: #015e9a" />
    <stop offset=".994" style="stop-color: #0e79b5" />
    <stop offset="1" style="stop-color: #0e7ab5" />
  </linearGradient>
  <path d="M355.3 301.6H98.5c-3.5 0-6.4-2.9-6.4-6.4V38.4c0-3.5 2.9-6.4 6.4-6.4h256.8c3.5 0 6.4 2.9 6.4 6.4v256.8c0 3.5-2.9 6.4-6.4 6.4z" style="fill: url(#SVGID_25_)" />
  <linearGradient id="SVGID_26_" x1="109.779" x2="326.817" y1="285.743" y2="68.706" gradientUnits="userSpaceOnUse">
    <stop offset="0" style="stop-color: #053854" />
    <stop offset=".14" style="stop-color: #044063" />
    <stop offset=".701" style="stop-color: #015e9b" />
    <stop offset=".994" style="stop-color: #0e7ab6" />
    <stop offset="1" style="stop-color: #0f7bb6" />
  </linearGradient>
  <path d="M356.2 302.5H99.5c-3.5 0-6.4-2.9-6.4-6.4V39.3c0-3.5 2.9-6.4 6.4-6.4h256.8c3.5 0 6.4 2.9 6.4 6.4v256.8c-.1 3.5-3 6.4-6.5 6.4z" style="fill: url(#SVGID_26_)" />
  <linearGradient id="SVGID_27_" x1="110.696" x2="327.635" y1="286.652" y2="69.712" gradientUnits="userSpaceOnUse">
    <stop offset="0" style="stop-color: #053854" />
    <stop offset=".214" style="stop-color: #04446b" />
    <stop offset=".701" style="stop-color: #015f9c" />
    <stop offset=".994" style="stop-color: #0f7cb7" />
    <stop offset="1" style="stop-color: #0f7cb8" />
  </linearGradient>
  <path d="M357.1 303.4H100.4c-3.5 0-6.4-2.9-6.4-6.4V40.2c0-3.5 2.9-6.4 6.4-6.4h256.8c3.5 0 6.4 2.9 6.4 6.4V297c-.1 3.5-2.9 6.4-6.5 6.4z" style="fill: url(#SVGID_27_)" />
  <linearGradient id="SVGID_28_" x1="111.614" x2="328.454" y1="287.56" y2="70.719" gradientUnits="userSpaceOnUse">
    <stop offset="0" style="stop-color: #053854" />
    <stop offset=".271" style="stop-color: #034872" />
    <stop offset=".701" style="stop-color: #015f9d" />
    <stop offset=".994" style="stop-color: #0f7db8" />
    <stop offset="1" style="stop-color: #107db9" />
  </linearGradient>
  <path d="M358 304.3H101.3c-3.5 0-6.4-2.9-6.4-6.4V41.1c0-3.5 2.9-6.4 6.4-6.4H358c3.5 0 6.4 2.9 6.4 6.4v256.8c0 3.5-2.8 6.4-6.4 6.4z" style="fill: url(#SVGID_28_)" />
  <linearGradient id="SVGID_29_" x1="112.531" x2="329.273" y1="288.468" y2="71.726" gradientUnits="userSpaceOnUse">
    <stop offset="0" style="stop-color: #053854" />
    <stop offset=".316" style="stop-color: #034b77" />
    <stop offset=".701" style="stop-color: #01609e" />
    <stop offset=".994" style="stop-color: #107eba" />
    <stop offset="1" style="stop-color: #107fba" />
  </linearGradient>
  <path d="M359 305.2H102.2c-3.5 0-6.4-2.9-6.4-6.4V42c0-3.5 2.9-6.4 6.4-6.4H359c3.5 0 6.4 2.9 6.4 6.4v256.8c0 3.5-2.9 6.4-6.4 6.4z" style="fill: url(#SVGID_29_)" />
  <linearGradient id="SVGID_30_" x1="113.448" x2="330.092" y1="289.376" y2="72.733" gradientUnits="userSpaceOnUse">
    <stop offset="0" style="stop-color: #053854" />
    <stop offset=".351" style="stop-color: #034d7c" />
    <stop offset=".701" style="stop-color: #01609f" />
    <stop offset=".994" style="stop-color: #107fbb" />
    <stop offset="1" style="stop-color: #1180bb" />
  </linearGradient>
  <path d="M359.9 306.1H103.1c-3.5 0-6.4-2.9-6.4-6.4V42.9c0-3.5 2.9-6.4 6.4-6.4h256.8c3.5 0 6.4 2.9 6.4 6.4v256.8c0 3.5-2.9 6.4-6.4 6.4z" style="fill: url(#SVGID_30_)" />
  <linearGradient id="SVGID_31_" x1="114.366" x2="330.911" y1="290.284" y2="73.74" gradientUnits="userSpaceOnUse">
    <stop offset="0" style="stop-color: #053854" />
    <stop offset=".381" style="stop-color: #034f80" />
    <stop offset=".701" style="stop-color: #0161a0" />
    <stop offset=".994" style="stop-color: #1181bc" />
    <stop offset="1" style="stop-color: #1281bd" />
  </linearGradient>
  <path d="M360.8 307H104c-3.5 0-6.4-2.9-6.4-6.4V43.8c0-3.5 2.9-6.4 6.4-6.4h256.8c3.5 0 6.4 2.9 6.4 6.4v256.8c0 3.5-2.9 6.4-6.4 6.4z" style="fill: url(#SVGID_31_)" />
  <linearGradient id="SVGID_32_" x1="115.283" x2="331.729" y1="291.193" y2="74.746" gradientUnits="userSpaceOnUse">
    <stop offset="0" style="stop-color: #053854" />
    <stop offset=".406" style="stop-color: #035283" />
    <stop offset=".701" style="stop-color: #0162a1" />
    <stop offset=".994" style="stop-color: #1282bd" />
    <stop offset="1" style="stop-color: #1283be" />
  </linearGradient>
  <path d="M361.7 307.9H105c-3.5 0-6.4-2.9-6.4-6.4V44.8c0-3.5 2.9-6.4 6.4-6.4h256.8c3.5 0 6.4 2.9 6.4 6.4v256.8c-.1 3.5-2.9 6.3-6.5 6.3z" style="fill: url(#SVGID_32_)" />
  <linearGradient id="SVGID_33_" x1="116.2" x2="332.548" y1="292.101" y2="75.753" gradientUnits="userSpaceOnUse">
    <stop offset="0" style="stop-color: #053854" />
    <stop offset=".427" style="stop-color: #025386" />
    <stop offset=".701" style="stop-color: #0162a2" />
    <stop offset=".994" style="stop-color: #1283bf" />
    <stop offset="1" style="stop-color: #1384bf" />
  </linearGradient>
  <path d="M362.6 308.8H105.9c-3.5 0-6.4-2.9-6.4-6.4V45.7c0-3.5 2.9-6.4 6.4-6.4h256.8c3.5 0 6.4 2.9 6.4 6.4v256.8c-.1 3.5-2.9 6.3-6.5 6.3z" style="fill: url(#SVGID_33_)" />
  <linearGradient id="SVGID_34_" x1="117.118" x2="333.367" y1="293.009" y2="76.76" gradientUnits="userSpaceOnUse">
    <stop offset="0" style="stop-color: #053854" />
    <stop offset=".445" style="stop-color: #025589" />
    <stop offset=".701" style="stop-color: #0163a3" />
    <stop offset=".994" style="stop-color: #1384c0" />
    <stop offset="1" style="stop-color: #1385c0" />
  </linearGradient>
  <path d="M363.6 309.7H106.8c-3.5 0-6.4-2.9-6.4-6.4V46.6c0-3.5 2.9-6.4 6.4-6.4h256.8c3.5 0 6.4 2.9 6.4 6.4v256.8c0 3.5-2.9 6.3-6.4 6.3z" style="fill: url(#SVGID_34_)" />
  <linearGradient id="SVGID_35_" x1="118.035" x2="334.186" y1="293.917" y2="77.767" gradientUnits="userSpaceOnUse">
    <stop offset="0" style="stop-color: #053854" />
    <stop offset=".461" style="stop-color: #02568c" />
    <stop offset=".701" style="stop-color: #0163a4" />
    <stop offset=".994" style="stop-color: #1386c1" />
    <stop offset="1" style="stop-color: #1486c2" />
  </linearGradient>
  <path d="M364.5 310.6H107.7c-3.5 0-6.4-2.9-6.4-6.4V47.5c0-3.5 2.9-6.4 6.4-6.4h256.8c3.5 0 6.4 2.9 6.4 6.4v256.8c0 3.5-2.9 6.3-6.4 6.3z" style="fill: url(#SVGID_35_)" />
  <linearGradient id="SVGID_36_" x1="118.953" x2="335.004" y1="294.825" y2="78.774" gradientUnits="userSpaceOnUse">
    <stop offset="0" style="stop-color: #053854" />
    <stop offset=".002" style="stop-color: #053854" />
    <stop offset=".474" style="stop-color: #02588e" />
    <stop offset=".701" style="stop-color: #0164a5" />
    <stop offset=".994" style="stop-color: #1487c2" />
    <stop offset="1" style="stop-color: #1588c3" />
  </linearGradient>
  <path d="M365.4 311.5H108.6c-3.5 0-6.4-2.9-6.4-6.4V48.4c0-3.5 2.9-6.4 6.4-6.4h256.8c3.5 0 6.4 2.9 6.4 6.4v256.8c0 3.5-2.9 6.3-6.4 6.3z" style="fill: url(#SVGID_36_)" />
  <linearGradient id="SVGID_37_" x1="119.87" x2="335.823" y1="295.734" y2="79.78" gradientUnits="userSpaceOnUse">
    <stop offset="0" style="stop-color: #053854" />
    <stop offset=".043" style="stop-color: #053b5a" />
    <stop offset=".486" style="stop-color: #025991" />
    <stop offset=".701" style="stop-color: #0164a6" />
    <stop offset=".994" style="stop-color: #1488c3" />
    <stop offset="1" style="stop-color: #1589c4" />
  </linearGradient>
  <path d="M366.3 312.5H109.5c-3.5 0-6.4-2.9-6.4-6.4V49.3c0-3.5 2.9-6.4 6.4-6.4h256.8c3.5 0 6.4 2.9 6.4 6.4v256.8c0 3.5-2.9 6.4-6.4 6.4z" style="fill: url(#SVGID_37_)" />
  <linearGradient id="SVGID_38_" x1="120.787" x2="336.642" y1="296.642" y2="80.787" gradientUnits="userSpaceOnUse">
    <stop offset="0" style="stop-color: #053854" />
    <stop offset=".08" style="stop-color: #043e5f" />
    <stop offset=".497" style="stop-color: #025a93" />
    <stop offset=".701" style="stop-color: #0165a7" />
    <stop offset=".994" style="stop-color: #1589c5" />
    <stop offset="1" style="stop-color: #168ac5" />
  </linearGradient>
  <path d="M367.2 313.4H110.5c-3.5 0-6.4-2.9-6.4-6.4V50.2c0-3.5 2.9-6.4 6.4-6.4h256.8c3.5 0 6.4 2.9 6.4 6.4V307c-.1 3.5-2.9 6.4-6.5 6.4z" style="fill: url(#SVGID_38_)" />
  <linearGradient id="SVGID_39_" x1="121.704" x2="337.461" y1="297.55" y2="81.794" gradientUnits="userSpaceOnUse">
    <stop offset="0" style="stop-color: #053854" />
    <stop offset=".113" style="stop-color: #044063" />
    <stop offset=".506" style="stop-color: #025c95" />
    <stop offset=".701" style="stop-color: #0166a8" />
    <stop offset=".994" style="stop-color: #168bc6" />
    <stop offset="1" style="stop-color: #168bc7" />
  </linearGradient>
  <path d="M368.1 314.3H111.4c-3.5 0-6.4-2.9-6.4-6.4V51.1c0-3.5 2.9-6.4 6.4-6.4h256.8c3.5 0 6.4 2.9 6.4 6.4v256.8c-.1 3.5-2.9 6.4-6.5 6.4z" style="fill: url(#SVGID_39_)" />
  <linearGradient id="SVGID_40_" x1="122.622" x2="338.279" y1="298.458" y2="82.801" gradientUnits="userSpaceOnUse">
    <stop offset="0" style="stop-color: #053854" />
    <stop offset=".148" style="stop-color: #044369" />
    <stop offset=".517" style="stop-color: #015c98" />
    <stop offset=".701" style="stop-color: #06a" />
    <stop offset=".994" style="stop-color: #168cc7" />
    <stop offset="1" style="stop-color: #178dc8" />
  </linearGradient>
  <path d="M369.1 315.2H112.3c-3.5 0-6.4-2.9-6.4-6.4V52c0-3.5 2.9-6.4 6.4-6.4h256.8c3.5 0 6.4 2.9 6.4 6.4v256.8c0 3.5-2.9 6.4-6.4 6.4z" style="fill: url(#SVGID_40_)" />
  <linearGradient id="SVGID_41_" x1="123.539" x2="339.098" y1="299.367" y2="83.808" gradientUnits="userSpaceOnUse">
    <stop offset="0" style="stop-color: #053854" />
    <stop offset=".174" style="stop-color: #04456d" />
    <stop offset=".524" style="stop-color: #015e9a" />
    <stop offset=".701" style="stop-color: #0067ab" />
    <stop offset=".994" style="stop-color: #178dc8" />
    <stop offset="1" style="stop-color: #188ec9" />
  </linearGradient>
  <path d="M370 316.1H113.2c-3.5 0-6.4-2.9-6.4-6.4V52.9c0-3.5 2.9-6.4 6.4-6.4H370c3.5 0 6.4 2.9 6.4 6.4v256.8c0 3.5-2.9 6.4-6.4 6.4z" style="fill: url(#SVGID_41_)" />
  <linearGradient id="SVGID_42_" x1="124.457" x2="339.917" y1="300.275" y2="84.814" gradientUnits="userSpaceOnUse">
    <stop offset="0" style="stop-color: #053854" />
    <stop offset=".197" style="stop-color: #034770" />
    <stop offset=".531" style="stop-color: #015e9b" />
    <stop offset=".701" style="stop-color: #0067ac" />
    <stop offset=".994" style="stop-color: #178eca" />
    <stop offset="1" style="stop-color: #188fca" />
  </linearGradient>
  <path d="M370.9 317H114.1c-3.5 0-6.4-2.9-6.4-6.4V53.8c0-3.5 2.9-6.4 6.4-6.4h256.8c3.5 0 6.4 2.9 6.4 6.4v256.8c0 3.5-2.9 6.4-6.4 6.4z" style="fill: url(#SVGID_42_)" />
  <linearGradient id="SVGID_43_" x1="125.374" x2="340.736" y1="301.183" y2="85.821" gradientUnits="userSpaceOnUse">
    <stop offset="0" style="stop-color: #053854" />
    <stop offset=".218" style="stop-color: #034974" />
    <stop offset=".537" style="stop-color: #015f9d" />
    <stop offset=".701" style="stop-color: #0068ad" />
    <stop offset=".994" style="stop-color: #1890cb" />
    <stop offset="1" style="stop-color: #1991cc" />
  </linearGradient>
  <path d="M371.8 317.9H115c-3.5 0-6.4-2.9-6.4-6.4V54.8c0-3.5 2.9-6.4 6.4-6.4h256.8c3.5 0 6.4 2.9 6.4 6.4v256.8c0 3.4-2.9 6.3-6.4 6.3z" style="fill: url(#SVGID_43_)" />
  <linearGradient id="SVGID_44_" x1="126.291" x2="341.555" y1="302.091" y2="86.828" gradientUnits="userSpaceOnUse">
    <stop offset="0" style="stop-color: #053854" />
    <stop offset=".237" style="stop-color: #034b77" />
    <stop offset=".542" style="stop-color: #01609f" />
    <stop offset=".701" style="stop-color: #0068ae" />
    <stop offset=".994" style="stop-color: #1891cc" />
    <stop offset="1" style="stop-color: #1992cd" />
  </linearGradient>
  <path d="M372.7 318.8H116c-3.5 0-6.4-2.9-6.4-6.4V55.7c0-3.5 2.9-6.4 6.4-6.4h256.8c3.5 0 6.4 2.9 6.4 6.4v256.8c-.1 3.5-2.9 6.3-6.5 6.3z" style="fill: url(#SVGID_44_)" />
  <linearGradient id="SVGID_45_" x1="127.209" x2="342.373" y1="302.999" y2="87.835" gradientUnits="userSpaceOnUse">
    <stop offset="0" style="stop-color: #053854" />
    <stop offset=".255" style="stop-color: #034d7a" />
    <stop offset=".547" style="stop-color: #0161a0" />
    <stop offset=".701" style="stop-color: #0069af" />
    <stop offset=".994" style="stop-color: #1992cd" />
    <stop offset="1" style="stop-color: #1a93ce" />
  </linearGradient>
  <path d="M373.6 319.7H116.9c-3.5 0-6.4-2.9-6.4-6.4V56.6c0-3.5 2.9-6.4 6.4-6.4h256.8c3.5 0 6.4 2.9 6.4 6.4v256.8c-.1 3.5-2.9 6.3-6.5 6.3z" style="fill: url(#SVGID_45_)" />
  <linearGradient id="SVGID_46_" x1="128.126" x2="343.192" y1="303.908" y2="88.842" gradientUnits="userSpaceOnUse">
    <stop offset="0" style="stop-color: #053854" />
    <stop offset=".271" style="stop-color: #034e7d" />
    <stop offset=".552" style="stop-color: #0162a2" />
    <stop offset=".701" style="stop-color: #006ab0" />
    <stop offset=".994" style="stop-color: #1a93cf" />
    <stop offset="1" style="stop-color: #1a94cf" />
  </linearGradient>
  <path d="M374.6 320.6H117.8c-3.5 0-6.4-2.9-6.4-6.4V57.5c0-3.5 2.9-6.4 6.4-6.4h256.8c3.5 0 6.4 2.9 6.4 6.4v256.8c0 3.5-2.9 6.3-6.4 6.3z" style="fill: url(#SVGID_46_)" />
  <linearGradient id="SVGID_47_" x1="129.043" x2="344.011" y1="304.816" y2="89.849" gradientUnits="userSpaceOnUse">
    <stop offset="0" style="stop-color: #053854" />
    <stop offset=".285" style="stop-color: #035080" />
    <stop offset=".556" style="stop-color: #0163a3" />
    <stop offset=".701" style="stop-color: #006ab1" />
    <stop offset=".994" style="stop-color: #1a95d0" />
    <stop offset="1" style="stop-color: #1b96d1" />
  </linearGradient>
  <path d="M375.5 321.5H118.7c-3.5 0-6.4-2.9-6.4-6.4V58.4c0-3.5 2.9-6.4 6.4-6.4h256.8c3.5 0 6.4 2.9 6.4 6.4v256.8c0 3.5-2.9 6.3-6.4 6.3z" style="fill: url(#SVGID_47_)" />
  <linearGradient id="SVGID_48_" x1="129.961" x2="344.83" y1="305.724" y2="90.855" gradientUnits="userSpaceOnUse">
    <stop offset="0" style="stop-color: #053854" />
    <stop offset=".298" style="stop-color: #035183" />
    <stop offset=".56" style="stop-color: #0164a5" />
    <stop offset=".701" style="stop-color: #006bb2" />
    <stop offset=".994" style="stop-color: #1b96d1" />
    <stop offset="1" style="stop-color: #1c97d2" />
  </linearGradient>
  <path d="M376.4 322.4H119.6c-3.5 0-6.4-2.9-6.4-6.4V59.3c0-3.5 2.9-6.4 6.4-6.4h256.8c3.5 0 6.4 2.9 6.4 6.4V316c0 3.6-2.9 6.4-6.4 6.4z" style="fill: url(#SVGID_48_)" />
  <linearGradient id="SVGID_49_" x1="130.878" x2="345.648" y1="306.632" y2="91.862" gradientUnits="userSpaceOnUse">
    <stop offset="0" style="stop-color: #053854" />
    <stop offset=".311" style="stop-color: #025285" />
    <stop offset=".563" style="stop-color: #0164a6" />
    <stop offset=".701" style="stop-color: #006bb3" />
    <stop offset=".994" style="stop-color: #1b97d2" />
    <stop offset="1" style="stop-color: #1c98d3" />
  </linearGradient>
  <path d="M377.3 323.4H120.6c-3.5 0-6.4-2.9-6.4-6.4V60.2c0-3.5 2.9-6.4 6.4-6.4h256.8c3.5 0 6.4 2.9 6.4 6.4V317c-.1 3.5-3 6.4-6.5 6.4z" style="fill: url(#SVGID_49_)" />
  <linearGradient id="SVGID_50_" x1="131.796" x2="346.467" y1="307.54" y2="92.869" gradientUnits="userSpaceOnUse">
    <stop offset="0" style="stop-color: #053854" />
    <stop offset=".322" style="stop-color: #025488" />
    <stop offset=".567" style="stop-color: #0165a8" />
    <stop offset=".701" style="stop-color: #006cb4" />
    <stop offset=".994" style="stop-color: #1c98d4" />
    <stop offset="1" style="stop-color: #1d99d4" />
  </linearGradient>
  <path d="M378.2 324.3H121.5c-3.5 0-6.4-2.9-6.4-6.4V61.1c0-3.5 2.9-6.4 6.4-6.4h256.8c3.5 0 6.4 2.9 6.4 6.4v256.8c-.1 3.5-2.9 6.4-6.5 6.4z" style="fill: url(#SVGID_50_)" />
  <linearGradient id="SVGID_51_" x1="132.713" x2="347.286" y1="308.449" y2="93.876" gradientUnits="userSpaceOnUse">
    <stop offset="0" style="stop-color: #053854" />
    <stop offset=".021" style="stop-color: #053a58" />
    <stop offset=".333" style="stop-color: #02558a" />
    <stop offset=".57" style="stop-color: #0166a9" />
    <stop offset=".701" style="stop-color: #006cb5" />
    <stop offset=".994" style="stop-color: #1c9ad5" />
    <stop offset="1" style="stop-color: #1d9bd6" />
  </linearGradient>
  <path d="M379.1 325.2H122.4c-3.5 0-6.4-2.9-6.4-6.4V62c0-3.5 2.9-6.4 6.4-6.4h256.8c3.5 0 6.4 2.9 6.4 6.4v256.8c-.1 3.5-2.9 6.4-6.5 6.4z" style="fill: url(#SVGID_51_)" />
  <linearGradient id="SVGID_52_" x1="133.63" x2="348.105" y1="309.357" y2="94.882" gradientUnits="userSpaceOnUse">
    <stop offset="0" style="stop-color: #053854" />
    <stop offset=".042" style="stop-color: #053c5b" />
    <stop offset=".343" style="stop-color: #02568c" />
    <stop offset=".572" style="stop-color: #0167ab" />
    <stop offset=".701" style="stop-color: #006db6" />
    <stop offset="1" style="stop-color: #1e9cd7" />
  </linearGradient>
  <path d="M380.1 326.1H123.3c-3.5 0-6.4-2.9-6.4-6.4V62.9c0-3.5 2.9-6.4 6.4-6.4h256.8c3.5 0 6.4 2.9 6.4 6.4v256.8c0 3.5-2.9 6.4-6.4 6.4z" style="fill: url(#SVGID_52_)" />
</svg>
